# xmcd CD database file
#
# Track frame offsets:
#	150
#	26698
#	47328
#	67313
#	100950
#	137124
#	155346
#	183513
#	195952
#
# Disc length: 2894 seconds
#
# Revision: 0
# Processed by: cddbd v1.5.2PL0 Copyright (c) Steve Scherf et al.
# Submitted via: CDex 1.51
#
DISCID=770b4c09
DTITLE=Walter Norris - Drifting
DYEAR=1974
DGENRE=Jazz
TTITLE0=Drifting
TTITLE1=A Child is Born
TTITLE2=Nota Cambiata
TTITLE3=Space Maker
TTITLE4=Spring Can Really Hang You up the Most
TTITLE5=Rose Waltz
TTITLE6=Thumbs Up
TTITLE7=Maple Leaf Rag
TTITLE8=Falling in Love with Love
EXTD=YEAR: 1974
EXTT0=
EXTT1=
EXTT2=
EXTT3=
EXTT4=
EXTT5=
EXTT6=
EXTT7=
EXTT8=
PLAYORDER=
